<svg width="17" height="17" viewBox="0 0 17 17" fill="none" xmlns="http://www.w3.org/2000/svg">
<path d="M12.7425 11.7575C12.4705 11.4855 12.0295 11.4855 11.7576 11.7575C11.4856 12.0295 11.4856 12.4704 11.7576 12.7424L12.7425 11.7575ZM15.5075 16.4924C15.7795 16.7644 16.2205 16.7644 16.4924 16.4925C16.7644 16.2205 16.7644 15.7795 16.4925 15.5076L15.5075 16.4924ZM11.7576 12.7424L15.5075 16.4924L16.4925 15.5076L12.7425 11.7575L11.7576 12.7424ZM7.42858 13.1607C4.2628 13.1607 1.69643 10.5943 1.69643 7.42856H0.303571C0.303571 11.3636 3.49355 14.5535 7.42858 14.5535V13.1607ZM13.1607 7.42856C13.1607 10.5943 10.5944 13.1607 7.42858 13.1607V14.5535C11.3636 14.5535 14.5536 11.3636 14.5536 7.42856H13.1607ZM7.42858 1.69643C10.5944 1.69643 13.1607 4.26279 13.1607 7.42856H14.5536C14.5536 3.49354 11.3636 0.303571 7.42858 0.303571V1.69643ZM7.42858 0.303571C3.49355 0.303571 0.303571 3.49354 0.303571 7.42856H1.69643C1.69643 4.26279 4.2628 1.69643 7.42858 1.69643V0.303571Z" fill="#828282"/>
</svg>
